<svg width="121" height="25" viewBox="0 0 121 25" fill="none" xmlns="http://www.w3.org/2000/svg">
<path d="M14.83 9.36C14.83 10.42 14.58 11.42 14.08 12.36C13.58 13.3 12.78 14.07 11.68 14.67C10.58 15.25 9.17 15.54 7.45 15.54H3.67V24H0.25V3.15H7.45C9.05 3.15 10.4 3.43 11.5 3.99C12.62 4.53 13.45 5.27 13.99 6.21C14.55 7.15 14.83 8.2 14.83 9.36ZM7.45 12.75C8.75 12.75 9.72 12.46 10.36 11.88C11 11.28 11.32 10.44 11.32 9.36C11.32 7.08 10.03 5.94 7.45 5.94H3.67V12.75H7.45ZM25.2618 24.27C23.7018 24.27 22.2918 23.92 21.0318 23.22C19.7718 22.5 18.7818 21.5 18.0618 20.22C17.3418 18.92 16.9818 17.42 16.9818 15.72C16.9818 14.04 17.3518 12.55 18.0918 11.25C18.8318 9.95 19.8418 8.95 21.1218 8.25C22.4018 7.55 23.8318 7.2 25.4118 7.2C26.9918 7.2 28.4218 7.55 29.7018 8.25C30.9818 8.95 31.9918 9.95 32.7318 11.25C33.4718 12.55 33.8418 14.04 33.8418 15.72C33.8418 17.4 33.4618 18.89 32.7018 20.19C31.9418 21.49 30.9018 22.5 29.5818 23.22C28.2818 23.92 26.8418 24.27 25.2618 24.27ZM25.2618 21.3C26.1418 21.3 26.9618 21.09 27.7218 20.67C28.5018 20.25 29.1318 19.62 29.6118 18.78C30.0918 17.94 30.3318 16.92 30.3318 15.72C30.3318 14.52 30.1018 13.51 29.6418 12.69C29.1818 11.85 28.5718 11.22 27.8118 10.8C27.0518 10.38 26.2318 10.17 25.3518 10.17C24.4718 10.17 23.6518 10.38 22.8918 10.8C22.1518 11.22 21.5618 11.85 21.1218 12.69C20.6818 13.51 20.4618 14.52 20.4618 15.72C20.4618 17.5 20.9118 18.88 21.8118 19.86C22.7318 20.82 23.8818 21.3 25.2618 21.3ZM40.6427 9.87C41.1427 9.03 41.8027 8.38 42.6227 7.92C43.4627 7.44 44.4527 7.2 45.5927 7.2V10.74H44.7227C43.3827 10.74 42.3627 11.08 41.6627 11.76C40.9827 12.44 40.6427 13.62 40.6427 15.3V24H37.2227V7.47H40.6427V9.87ZM52.7263 10.26V19.41C52.7263 20.03 52.8663 20.48 53.1463 20.76C53.4463 21.02 53.9463 21.15 54.6463 21.15H56.7463V24H54.0463C52.5063 24 51.3263 23.64 50.5063 22.92C49.6863 22.2 49.2763 21.03 49.2763 19.41V10.26H47.3263V7.47H49.2763V3.36H52.7263V7.47H56.7463V10.26H52.7263ZM66.8284 10.26H63.7684V24H60.3184V10.26H58.3684V7.47H60.3184V6.3C60.3184 4.4 60.8184 3.02 61.8184 2.16C62.8384 1.28 64.4284 0.84 66.5884 0.84V3.69C65.5484 3.69 64.8184 3.89 64.3984 4.29C63.9784 4.67 63.7684 5.34 63.7684 6.3V7.47H66.8284V10.26ZM77.0294 24.27C75.4694 24.27 74.0594 23.92 72.7994 23.22C71.5394 22.5 70.5494 21.5 69.8294 20.22C69.1094 18.92 68.7494 17.42 68.7494 15.72C68.7494 14.04 69.1194 12.55 69.8594 11.25C70.5994 9.95 71.6094 8.95 72.8894 8.25C74.1694 7.55 75.5994 7.2 77.1794 7.2C78.7594 7.2 80.1894 7.55 81.4694 8.25C82.7494 8.95 83.7594 9.95 84.4994 11.25C85.2394 12.55 85.6094 14.04 85.6094 15.72C85.6094 17.4 85.2294 18.89 84.4694 20.19C83.7094 21.49 82.6694 22.5 81.3494 23.22C80.0494 23.92 78.6094 24.27 77.0294 24.27ZM77.0294 21.3C77.9094 21.3 78.7294 21.09 79.4894 20.67C80.2694 20.25 80.8994 19.62 81.3794 18.78C81.8594 17.94 82.0994 16.92 82.0994 15.72C82.0994 14.52 81.8694 13.51 81.4094 12.69C80.9494 11.85 80.3394 11.22 79.5794 10.8C78.8194 10.38 77.9994 10.17 77.1194 10.17C76.2394 10.17 75.4194 10.38 74.6594 10.8C73.9194 11.22 73.3294 11.85 72.8894 12.69C72.4494 13.51 72.2294 14.52 72.2294 15.72C72.2294 17.5 72.6794 18.88 73.5794 19.86C74.4994 20.82 75.6494 21.3 77.0294 21.3ZM92.4102 1.8V24H88.9902V1.8H92.4102ZM98.6404 5.28C98.0204 5.28 97.5004 5.07 97.0804 4.65C96.6604 4.23 96.4504 3.71 96.4504 3.09C96.4504 2.47 96.6604 1.95 97.0804 1.53C97.5004 1.11 98.0204 0.899999 98.6404 0.899999C99.2404 0.899999 99.7504 1.11 100.17 1.53C100.59 1.95 100.8 2.47 100.8 3.09C100.8 3.71 100.59 4.23 100.17 4.65C99.7504 5.07 99.2404 5.28 98.6404 5.28ZM100.32 7.47V24H96.9004V7.47H100.32ZM111.981 24.27C110.421 24.27 109.011 23.92 107.751 23.22C106.491 22.5 105.501 21.5 104.781 20.22C104.061 18.92 103.701 17.42 103.701 15.72C103.701 14.04 104.071 12.55 104.811 11.25C105.551 9.95 106.561 8.95 107.841 8.25C109.121 7.55 110.551 7.2 112.131 7.2C113.711 7.2 115.141 7.55 116.421 8.25C117.701 8.95 118.711 9.95 119.451 11.25C120.191 12.55 120.561 14.04 120.561 15.72C120.561 17.4 120.181 18.89 119.421 20.19C118.661 21.49 117.621 22.5 116.301 23.22C115.001 23.92 113.561 24.27 111.981 24.27ZM111.981 21.3C112.861 21.3 113.681 21.09 114.441 20.67C115.221 20.25 115.851 19.62 116.331 18.78C116.811 17.94 117.051 16.92 117.051 15.72C117.051 14.52 116.821 13.51 116.361 12.69C115.901 11.85 115.291 11.22 114.531 10.8C113.771 10.38 112.951 10.17 112.071 10.17C111.191 10.17 110.371 10.38 109.611 10.8C108.871 11.22 108.281 11.85 107.841 12.69C107.401 13.51 107.181 14.52 107.181 15.72C107.181 17.5 107.631 18.88 108.531 19.86C109.451 20.82 110.601 21.3 111.981 21.3Z" fill="white"/>
</svg>
